<svg width="40" height="48" viewBox="0 0 40 48" fill="none" xmlns="http://www.w3.org/2000/svg">
<path d="M18.3333 48H3.33333V24H18.3333V48ZM18.3333 12H0V20H18.3333V12ZM21.6667 48H36.6667V24H21.6667V48ZM21.6667 12V20H40V12H21.6667ZM28.9483 0C24.0367 0 21.1633 6.954 20 10H28.9083C34.73 10 34.7917 0 28.9483 0ZM27.6217 7.242H24.2167C25.4483 5 26.615 3.31 28.12 3.31C30.0733 3.31 30.1667 7.242 27.6217 7.242ZM11.0917 10H20C18.8367 6.954 15.9633 0 11.0517 0C5.20833 0 5.27 10 11.0917 10V10ZM11.88 3.31C13.385 3.31 14.5517 5 15.7833 7.242H12.3783C9.83333 7.242 9.92667 3.31 11.88 3.31V3.31Z" fill="#434A34"/>
</svg>
