<svg width="40" height="48" viewBox="0 0 40 48" fill="none" xmlns="http://www.w3.org/2000/svg">
<path d="M0 48L2.82509 35.674C1.0818 32.066 0.165787 27.976 0.167462 23.782C0.172486 10.67 9.10659 0 20.0837 0C25.4107 0.002 30.4111 2.48 34.1723 6.976C37.9318 11.472 40.0017 17.448 40 23.804C39.995 36.918 31.0609 47.588 20.0837 47.588C16.7512 47.586 13.4673 46.588 10.5585 44.692L0 48ZM11.0475 40.386C13.8541 42.376 16.5335 43.568 20.077 43.57C29.2004 43.57 36.6323 34.702 36.6374 23.8C36.6407 12.876 29.2439 4.02 20.0904 4.016C10.9604 4.016 3.53345 12.884 3.5301 23.784C3.52843 28.234 4.62028 31.566 6.45399 35.052L4.78104 42.348L11.0475 40.386ZM30.1164 29.458C29.9925 29.21 29.6609 29.062 29.1619 28.764C28.6645 28.466 26.2179 27.028 25.7607 26.83C25.3052 26.632 24.9736 26.532 24.6404 27.128C24.3088 27.722 23.3543 29.062 23.0646 29.458C22.7748 29.854 22.4835 29.904 21.9861 29.606C21.4887 29.308 19.8844 28.682 17.9838 26.656C16.5051 25.08 15.5053 23.134 15.2156 22.538C14.9259 21.944 15.1855 21.622 15.4333 21.326C15.6577 21.06 15.9307 20.632 16.1802 20.284C16.4331 19.94 16.5151 19.692 16.6826 19.294C16.8484 18.898 16.7663 18.55 16.6407 18.252C16.5151 17.956 15.5204 15.03 15.1068 13.84C14.7015 12.682 14.2912 12.838 13.9864 12.82L13.0319 12.8C12.7003 12.8 12.1611 12.948 11.7056 13.544C11.2501 14.14 9.96399 15.576 9.96399 18.502C9.96399 21.428 11.7475 24.254 11.9953 24.65C12.2448 25.046 15.5036 31.05 20.4957 33.624C21.683 34.236 22.6107 34.602 23.3325 34.876C24.5248 35.328 25.61 35.264 26.4674 35.112C27.4236 34.942 29.4114 33.674 29.8267 32.286C30.242 30.896 30.242 29.706 30.1164 29.458Z" fill="#434A34"/>
</svg>
